<svg width="212" height="177" viewBox="0 0 212 177" fill="none" xmlns="http://www.w3.org/2000/svg">
<g id="triangles">
<g id="Light" opacity="0.8">
<path id="light1" opacity="0.8" d="M147.824 85.8332C149.992 86.9502 149.992 90.0498 147.824 91.1668L87.6241 122.186C85.6275 123.215 83.25 121.765 83.25 119.519L83.25 57.4806C83.25 55.2345 85.6275 53.785 87.6241 54.8138L147.824 85.8332Z" fill="#28527A"/>
</g>
<g id="Dark" opacity="0.8">
<path id="dark1" opacity="0.8" d="M194.824 85.8332C196.992 86.9502 196.992 90.0498 194.824 91.1668L134.624 122.186C132.628 123.215 130.25 121.765 130.25 119.519V57.4806C130.25 55.2345 132.627 53.785 134.624 54.8138L194.824 85.8332Z" fill="#28527A"/>
<path id="dark2" opacity="0.8" d="M100.824 85.8332C102.992 86.9502 102.992 90.0498 100.824 91.1668L40.6241 122.186C38.6275 123.215 36.25 121.765 36.25 119.519L36.25 57.4806C36.25 55.2345 38.6275 53.785 40.6241 54.8138L100.824 85.8332Z" fill="#28527A"/>
</g>
</g>
</svg>
